<?xml version="1.0" encoding="UTF-8"?>
<svg version="1.1" xmlns="http://www.w3.org/2000/svg" width="500" height="500">
<path d="M0 0 C165 0 330 0 500 0 C500 165 500 330 500 500 C335 500 170 500 0 500 C0 335 0 170 0 0 Z " fill="#FEFEFE" transform="translate(0,0)"/>
<path d="M0 0 C1.38808463 -0.00243612 2.77616749 -0.00616332 4.16424561 -0.01106262 C7.88707189 -0.02035797 11.60963004 -0.01114628 15.33243513 0.00226951 C19.24975016 0.01369766 23.16705416 0.00946816 27.0843811 0.00752258 C33.65232661 0.00664379 40.22016806 0.01763786 46.78808594 0.03613281 C54.36474212 0.05734707 61.94124668 0.06079658 69.51792657 0.05457085 C76.83821052 0.04886567 84.1584415 0.05453305 91.4787178 0.0657444 C94.58138643 0.07036971 97.68402245 0.07127332 100.78669357 0.06915855 C104.43941918 0.06726702 108.09199163 0.07544553 111.74468231 0.09121895 C113.71347591 0.09744203 115.6822928 0.09396831 117.65109253 0.09014893 C123.96888759 0.12790307 129.46123917 0.49647287 135.50244141 2.37231445 C136.49888672 2.64430664 137.49533203 2.91629883 138.52197266 3.1965332 C150.54357916 6.91230249 159.59421986 13.61689259 168.50244141 22.37231445 C169.45957031 23.31010742 169.45957031 23.31010742 170.43603516 24.2668457 C181.67189346 36.15333277 186.64163506 51.24798052 186.66357422 67.27661133 C186.66853912 68.15232788 186.67350403 69.02804443 186.67861938 69.93029785 C186.6931791 72.81722819 186.70003452 75.70410348 186.70556641 78.59106445 C186.70839378 79.58308365 186.71122116 80.57510284 186.71413422 81.59718323 C186.72910597 86.85230779 186.73834671 92.10740506 186.74267578 97.36254883 C186.74814129 102.75761623 186.77213449 108.15242882 186.80064774 113.54741669 C186.81939539 117.72392472 186.82448624 121.90037302 186.82601166 126.07691956 C186.82901405 128.06378057 186.83695961 130.05064114 186.85019684 132.03746033 C186.93867602 146.34482105 186.68201668 160.16716234 179.50244141 172.99731445 C179.11435303 173.70678223 178.72626465 174.41625 178.32641602 175.1472168 C168.38755339 192.5633286 152.59302625 202.82797734 133.67822266 208.57543945 C125.90798637 210.52516664 118.39320472 210.52052363 110.41381836 210.51757812 C109.10558609 210.52093674 107.79735382 210.52429535 106.44947815 210.52775574 C102.87481606 210.53655577 99.30017794 210.53893222 95.72550607 210.53957152 C93.48660489 210.54028451 91.24770972 210.54242358 89.00881004 210.54506874 C81.18189485 210.55431029 73.35499664 210.55840529 65.52807617 210.55761719 C58.25896535 210.55701733 50.98992895 210.5675541 43.72083694 210.58336085 C37.45898541 210.59648682 31.19715806 210.60179894 24.9352929 210.60116178 C21.20479886 210.60090819 17.47437097 210.60368149 13.74389076 210.61433983 C9.57522214 210.62592561 5.40671753 210.62124321 1.23803711 210.61523438 C0.02047729 210.62085388 -1.19708252 210.62647339 -2.45153809 210.63226318 C-22.01745351 210.56094254 -39.94356496 204.90001737 -54.31005859 191.12231445 C-59.20803504 185.9773219 -63.04106694 180.56361269 -66.49755859 174.37231445 C-66.88427734 173.6968457 -67.27099609 173.02137695 -67.66943359 172.32543945 C-73.43144595 161.59923183 -75.63920487 150.46336126 -75.65869141 138.39013672 C-75.66365631 137.63598984 -75.66862122 136.88184296 -75.67373657 136.10484314 C-75.68822683 133.63279267 -75.69514051 131.1608065 -75.70068359 128.6887207 C-75.70351097 127.83467085 -75.70633835 126.98062099 -75.7092514 126.10069084 C-75.72419583 121.57477389 -75.73345343 117.04888838 -75.73779297 112.52294922 C-75.74324962 107.89722396 -75.76723168 103.2717972 -75.79576492 98.64616489 C-75.81459052 95.04686199 -75.81960751 91.44762788 -75.82112885 87.84827995 C-75.82411468 86.14579588 -75.8320013 84.44331179 -75.84531403 82.74087715 C-75.95213043 68.02274707 -75.25594169 52.75699499 -68.49755859 39.37231445 C-68.05025391 38.44418945 -67.60294922 37.51606445 -67.14208984 36.55981445 C-59.16402063 21.43103136 -44.80896839 8.85586877 -28.49755859 3.37231445 C-18.92664818 0.81148163 -9.87811707 -0.05969292 0 0 Z " fill="#FDFDFD" transform="translate(206.49755859375,152.627685546875)"/>
<path d="M0 0 C1.38808463 -0.00243612 2.77616749 -0.00616332 4.16424561 -0.01106262 C7.88707189 -0.02035797 11.60963004 -0.01114628 15.33243513 0.00226951 C19.24975016 0.01369766 23.16705416 0.00946816 27.0843811 0.00752258 C33.65232661 0.00664379 40.22016806 0.01763786 46.78808594 0.03613281 C54.36474212 0.05734707 61.94124668 0.06079658 69.51792657 0.05457085 C76.83821052 0.04886567 84.1584415 0.05453305 91.4787178 0.0657444 C94.58138643 0.07036971 97.68402245 0.07127332 100.78669357 0.06915855 C104.43941918 0.06726702 108.09199163 0.07544553 111.74468231 0.09121895 C113.71347591 0.09744203 115.6822928 0.09396831 117.65109253 0.09014893 C123.96888759 0.12790307 129.46123917 0.49647287 135.50244141 2.37231445 C136.49888672 2.64430664 137.49533203 2.91629883 138.52197266 3.1965332 C150.54357916 6.91230249 159.59421986 13.61689259 168.50244141 22.37231445 C169.45957031 23.31010742 169.45957031 23.31010742 170.43603516 24.2668457 C181.67189346 36.15333277 186.64163506 51.24798052 186.66357422 67.27661133 C186.66853912 68.15232788 186.67350403 69.02804443 186.67861938 69.93029785 C186.6931791 72.81722819 186.70003452 75.70410348 186.70556641 78.59106445 C186.70839378 79.58308365 186.71122116 80.57510284 186.71413422 81.59718323 C186.72910597 86.85230779 186.73834671 92.10740506 186.74267578 97.36254883 C186.74814129 102.75761623 186.77213449 108.15242882 186.80064774 113.54741669 C186.81939539 117.72392472 186.82448624 121.90037302 186.82601166 126.07691956 C186.82901405 128.06378057 186.83695961 130.05064114 186.85019684 132.03746033 C186.93867602 146.34482105 186.68201668 160.16716234 179.50244141 172.99731445 C179.11435303 173.70678223 178.72626465 174.41625 178.32641602 175.1472168 C168.38755339 192.5633286 152.59302625 202.82797734 133.67822266 208.57543945 C125.90798637 210.52516664 118.39320472 210.52052363 110.41381836 210.51757812 C109.10558609 210.52093674 107.79735382 210.52429535 106.44947815 210.52775574 C102.87481606 210.53655577 99.30017794 210.53893222 95.72550607 210.53957152 C93.48660489 210.54028451 91.24770972 210.54242358 89.00881004 210.54506874 C81.18189485 210.55431029 73.35499664 210.55840529 65.52807617 210.55761719 C58.25896535 210.55701733 50.98992895 210.5675541 43.72083694 210.58336085 C37.45898541 210.59648682 31.19715806 210.60179894 24.9352929 210.60116178 C21.20479886 210.60090819 17.47437097 210.60368149 13.74389076 210.61433983 C9.57522214 210.62592561 5.40671753 210.62124321 1.23803711 210.61523438 C0.02047729 210.62085388 -1.19708252 210.62647339 -2.45153809 210.63226318 C-22.01745351 210.56094254 -39.94356496 204.90001737 -54.31005859 191.12231445 C-59.20803504 185.9773219 -63.04106694 180.56361269 -66.49755859 174.37231445 C-66.88427734 173.6968457 -67.27099609 173.02137695 -67.66943359 172.32543945 C-73.43144595 161.59923183 -75.63920487 150.46336126 -75.65869141 138.39013672 C-75.66365631 137.63598984 -75.66862122 136.88184296 -75.67373657 136.10484314 C-75.68822683 133.63279267 -75.69514051 131.1608065 -75.70068359 128.6887207 C-75.70351097 127.83467085 -75.70633835 126.98062099 -75.7092514 126.10069084 C-75.72419583 121.57477389 -75.73345343 117.04888838 -75.73779297 112.52294922 C-75.74324962 107.89722396 -75.76723168 103.2717972 -75.79576492 98.64616489 C-75.81459052 95.04686199 -75.81960751 91.44762788 -75.82112885 87.84827995 C-75.82411468 86.14579588 -75.8320013 84.44331179 -75.84531403 82.74087715 C-75.95213043 68.02274707 -75.25594169 52.75699499 -68.49755859 39.37231445 C-68.05025391 38.44418945 -67.60294922 37.51606445 -67.14208984 36.55981445 C-59.16402063 21.43103136 -44.80896839 8.85586877 -28.49755859 3.37231445 C-18.92664818 0.81148163 -9.87811707 -0.05969292 0 0 Z M-38.49755859 30.37231445 C-39.55716797 31.26563477 -39.55716797 31.26563477 -40.63818359 32.17700195 C-49.24101196 40.09029064 -56.31281586 51.8764009 -56.88523865 63.79060364 C-56.9057524 65.34872096 -56.91048655 66.90710495 -56.90161133 68.46533203 C-56.90847458 69.32519211 -56.91533783 70.18505219 -56.92240906 71.07096863 C-56.94056625 73.88643361 -56.93685467 76.70133527 -56.93115234 79.5168457 C-56.9357202 81.49305906 -56.94102757 83.46927084 -56.94703674 85.44548035 C-56.95594671 89.57846547 -56.95356971 93.71125717 -56.94360352 97.84423828 C-56.93213029 103.11288516 -56.95231113 108.38086015 -56.98152065 113.64941883 C-56.99996385 117.7289395 -56.99957384 121.80830167 -56.99388313 125.88785362 C-56.99373084 127.82891468 -56.99969844 129.76998711 -57.01217461 131.71100807 C-57.11611252 150.53406588 -53.32230359 164.80437318 -40.20849609 178.9699707 C-27.0576535 190.62381536 -12.96376897 191.51151974 3.9375 191.54931641 C5.88368477 191.5591732 5.88368477 191.5591732 7.8691864 191.56922913 C12.12973849 191.59003852 16.39029004 191.60060423 20.65087891 191.6105957 C22.12873985 191.61465084 23.60660062 191.61876797 25.08446121 191.62294579 C32.02721635 191.64194046 38.9699612 191.65618763 45.91273725 191.66455775 C53.88453341 191.67433238 61.8560521 191.7006818 69.82775056 191.74105865 C76.02090783 191.77133539 82.21398595 191.78603719 88.40721571 191.78933877 C92.09250973 191.7916744 95.77750537 191.80044007 99.46271896 191.82579994 C103.57818547 191.85367111 107.6930385 191.84921442 111.80859375 191.84228516 C113.60608818 191.86150024 113.60608818 191.86150024 115.43989563 191.88110352 C129.96325606 191.79247629 143.04880558 186.92461664 153.85009766 177.11450195 C164.393257 165.9980739 168.62530127 153.06707433 168.67944336 137.98120117 C168.68930016 136.76741035 168.68930016 136.76741035 168.69935608 135.52909851 C168.71894984 132.87006512 168.73072141 130.21108788 168.74072266 127.55200195 C168.74479818 126.63687962 168.74887371 125.72175728 168.75307274 124.77890396 C168.77387584 119.93341554 168.78820145 115.08795494 168.79760742 110.24243164 C168.80865024 105.2698211 168.84304229 100.29766063 168.88277912 95.32520866 C168.90907835 91.47300454 168.91731107 87.62090551 168.9208889 83.76861954 C168.92572175 81.93721609 168.93723991 80.10581628 168.9559269 78.2745018 C169.12065094 61.05984113 166.39492404 46.72571298 154.25244141 33.62231445 C142.36890897 22.58383322 128.4380285 17.59441587 112.41308594 17.7253418 C111.05620154 17.71854489 109.69932639 17.70963027 108.34246826 17.6987915 C104.69748356 17.67623233 101.05321606 17.68473698 97.40822077 17.70068693 C93.56622749 17.71347408 89.72428976 17.7015702 85.8822937 17.6937561 C79.43183538 17.6846942 72.98166453 17.69655355 66.53125 17.72045898 C59.11190805 17.7476407 51.69325395 17.73886403 44.27392876 17.71132696 C37.86578276 17.68850973 31.45784177 17.68549755 25.04966819 17.6985203 C21.23915548 17.70624909 17.42896412 17.70754123 13.61847305 17.69083786 C10.0311425 17.67620757 6.4446829 17.68674507 2.85744476 17.71530914 C0.94128052 17.7248884 -0.97495894 17.71037795 -2.89108276 17.69467163 C-16.19503495 17.85365768 -28.24114643 21.67982329 -38.49755859 30.37231445 Z " fill="#040404" transform="translate(206.49755859375,152.627685546875)"/>
<path d="M0 0 C2.14453125 0.99609375 2.14453125 0.99609375 4.09008789 2.07568359 C6.49110483 3.29514278 8.85413621 4.1255687 11.41015625 4.96875 C17.83314312 7.26755944 23.54189743 10.45764266 29.39453125 13.93359375 C30.44745361 14.55572754 31.50037598 15.17786133 32.58520508 15.81884766 C54.70088632 29.08447506 54.70088632 29.08447506 58.046875 40.46484375 C59.10236579 46.33538298 57.74813461 50.39725322 54.39453125 55.24609375 C44.12457729 67.2277067 28.60998433 73.78244617 14.05078125 78.921875 C10.42121072 80.23643099 6.93106694 81.70226797 3.39453125 83.24609375 C-4.00159799 86.39365838 -12.10928152 88.15180691 -19.9375 85.4375 C-29.53005613 80.13683323 -33.51683105 69.1845328 -36.60546875 59.24609375 C-37.30443095 56.21383125 -37.5374931 53.35355182 -37.60546875 50.24609375 C-37.64414063 49.09109375 -37.6828125 47.93609375 -37.72265625 46.74609375 C-37.99314038 31.83941276 -36.09414029 16.63896112 -25.60546875 5.24609375 C-18.41583808 -1.58575909 -9.56795285 -2.76853808 0 0 Z " fill="#050505" transform="translate(253.60546875,214.75390625)"/>
<path d="M0 0 C7.0696209 2.19150967 13.64500895 4.98313194 20.3125 8.1875 C21.83000854 8.91453125 21.83000854 8.91453125 23.37817383 9.65625 C30.70272222 13.22810858 37.46999276 17.09960519 44 22 C44.75925781 22.5671875 45.51851563 23.134375 46.30078125 23.71875 C46.86152344 24.1415625 47.42226563 24.564375 48 25 C46.32614453 30.02156641 41.58939701 31.64277581 37.05175781 34.00439453 C30.66915431 37.10152174 23.99123409 39.56089635 17.36767578 42.08642578 C15.2210171 42.91471994 13.09119401 43.77349536 10.96484375 44.65234375 C9.82144531 45.11769531 8.67804688 45.58304687 7.5 46.0625 C6.5203125 46.46597656 5.540625 46.86945313 4.53125 47.28515625 C1.7892558 48.05951572 0.56552794 48.22407542 -2 47 C-3.23046875 45.328125 -3.23046875 45.328125 -4.1875 43.25 C-4.51105469 42.57453125 -4.83460938 41.8990625 -5.16796875 41.203125 C-8.90183234 31.31627494 -8.52946308 16.7319516 -4.93359375 6.890625 C-3.63299738 4.25678131 -2.03692426 2.10716303 0 0 Z " fill="#FBFBFB" transform="translate(243,233)"/>
<path d="M0 0 C1 1 1 1 1.28125 3.8203125 C0.94627122 7.60743366 0.23040788 8.34412193 -2.5 10.875 C-17.12104792 26.37589859 -21.2081369 49.39750173 -21.09765625 69.94140625 C-21.09553383 71.45383156 -21.09553383 71.45383156 -21.09336853 72.99681091 C-21.08781605 76.18540542 -21.07527261 79.37392708 -21.0625 82.5625 C-21.05747885 84.73762919 -21.05291702 86.91275949 -21.04882812 89.08789062 C-21.03786223 94.39195151 -21.02117214 99.69597055 -21 105 C-24.465 105.495 -24.465 105.495 -28 106 C-30.49215109 103.09474385 -31.37850344 101.31358357 -31.41992188 97.48876953 C-31.43583374 96.59908478 -31.45174561 95.70940002 -31.46813965 94.79275513 C-31.46834106 93.83247406 -31.46854248 92.87219299 -31.46875 91.8828125 C-31.47636353 90.87523895 -31.48397705 89.86766541 -31.49182129 88.82955933 C-31.50263641 86.68603992 -31.50546969 84.54246776 -31.50097656 82.39892578 C-31.50002195 79.19857631 -31.54125181 76.00077317 -31.5859375 72.80078125 C-31.74137759 45.84342117 -25.46998783 22.56313542 -8.08984375 1.58203125 C-5.28938206 -0.53794442 -3.42657037 -0.36594441 0 0 Z " fill="#0A0A0A" transform="translate(143,159)"/>
<path d="M0 0 C2.64 0 5.28 0 8 0 C9.98 3.96 11.96 7.92 14 12 C16.15016583 9.13311223 17.67007588 6.88949817 19.1875 3.75 C19.53167969 3.04359375 19.87585938 2.3371875 20.23046875 1.609375 C20.61138672 0.81273437 20.61138672 0.81273437 21 0 C23.64 0 26.28 0 29 0 C21 16 21 16 19.90429688 18.04101562 C18.5836238 20.90199855 18.56271071 23.62148821 18.375 26.75 C18.30023438 27.92046875 18.22546875 29.0909375 18.1484375 30.296875 C18.09945312 31.18890625 18.05046875 32.0809375 18 33 C15.69 33 13.38 33 11 33 C11.03222656 32.25878906 11.06445312 31.51757812 11.09765625 30.75390625 C10.98432947 20.46635277 7.09376344 13.37748896 1.92382812 4.69482422 C1 3 1 3 0 0 Z " fill="#0E0E0E" transform="translate(202,371)"/>
<path d="M0 0 C7.59 0 15.18 0 23 0 C23 1.98 23 3.96 23 6 C20.36 6 17.72 6 15 6 C15 14.91 15 23.82 15 33 C12.69 33 10.38 33 8 33 C8 24.09 8 15.18 8 6 C5.36 6 2.72 6 0 6 C0 4.02 0 2.04 0 0 Z " fill="#0F0F0F" transform="translate(278,371)"/>
<path d="M0 0 C2.48050929 1.16432069 4.09425952 2.09425952 6 4 C6.52307119 7.83585542 6.27113549 9.56992302 4.1875 12.875 C-0.44877116 15.96584744 -4.58278802 16.00709788 -10 15 C-13.66656378 12.55562415 -14.74750813 11.23721018 -15.625 6.9375 C-15 4 -15 4 -13.125 1.625 C-8.71800786 -0.66663591 -4.87541927 -0.68848285 0 0 Z " fill="#0B0B0B" transform="translate(270,414)"/>
<path d="M0 0 C5.02072539 -0.79274611 5.02072539 -0.79274611 8 0 C10.81110263 2.69550589 12.91754472 5.72013294 15 9 C15.33 6.03 15.66 3.06 16 0 C17.98 0 19.96 0 22 0 C22 4.95 22 9.9 22 15 C16.97927461 15.79274611 16.97927461 15.79274611 14 15 C11.18889737 12.30449411 9.08245528 9.27986706 7 6 C6.67 8.97 6.34 11.94 6 15 C4.02 15 2.04 15 0 15 C0 10.05 0 5.1 0 0 Z " fill="#FF3434" transform="translate(206,414)"/>
<path d="M0 0 C3.5578125 -0.0928125 3.5578125 -0.0928125 7.1875 -0.1875 C8.29387817 -0.22846802 8.29387817 -0.22846802 9.42260742 -0.27026367 C13.81175902 -0.32538739 16.56017782 0.24159021 20 3 C20.625 5.5 20.625 5.5 20 8 C16.91733671 10.88378178 14.24777387 11.17469157 10.1875 11.1875 C8.79108728 11.13966204 7.39482079 11.08204828 6 11 C6 12.32 6 13.64 6 15 C4.02 15 2.04 15 0 15 C0 10.05 0 5.1 0 0 Z " fill="#0B0B0B" transform="translate(323,414)"/>
<path d="M0 0 C3.5578125 -0.0928125 3.5578125 -0.0928125 7.1875 -0.1875 C8.29387817 -0.22846802 8.29387817 -0.22846802 9.42260742 -0.27026367 C13.81175902 -0.32538739 16.56017782 0.24159021 20 3 C20.625 5.5 20.625 5.5 20 8 C16.91733671 10.88378178 14.24777387 11.17469157 10.1875 11.1875 C8.79108728 11.13966204 7.39482079 11.08204828 6 11 C6 12.32 6 13.64 6 15 C4.02 15 2.04 15 0 15 C0 10.05 0 5.1 0 0 Z " fill="#0B0B0B" transform="translate(279,414)"/>
<path d="M0 0 C1 1 1 1 1.42578125 3.83203125 C1 7 1 7 -1.51953125 9.01171875 C-2.60621094 9.56472656 -3.69289062 10.11773437 -4.8125 10.6875 C-8.40867723 12.556481 -11.16212651 14.14471624 -14 17 C-17.34192692 16.75546876 -18.60543557 16.39456443 -21 14 C-21.07797377 11.19294414 -20.51961333 9.58418955 -18.6484375 7.48046875 C-13.65955596 2.98136325 -6.98442534 -2.75144028 0 0 Z " fill="#0D0D0D" transform="translate(168,142)"/>
<path d="M0 0 C3.19140625 -0.43359375 3.19140625 -0.43359375 7 0 C9.18433685 1.99224127 10.50421594 4.37254471 11.9375 6.9375 C12.33517578 7.59685547 12.73285156 8.25621094 13.14257812 8.93554688 C16 13.73070407 16 13.73070407 16 15 C13.69 15 11.38 15 9 15 C9 14.34 9 13.68 9 13 C5.37 13 1.74 13 -2 13 C-2 13.66 -2 14.32 -2 15 C-4.31 15 -6.62 15 -9 15 C-8.51789063 14.25234375 -8.03578125 13.5046875 -7.5390625 12.734375 C-6.90742188 11.74953125 -6.27578125 10.7646875 -5.625 9.75 C-4.99851563 8.77546875 -4.37203125 7.8009375 -3.7265625 6.796875 C-2.34865148 4.56478385 -1.11687358 2.36912578 0 0 Z " fill="#FF4646" transform="translate(188,414)"/>
<path d="M0 0 C1.98 0 3.96 0 6 0 C6.33 3.3 6.66 6.6 7 10 C8.65 10.33 10.3 10.66 12 11 C12.33 7.37 12.66 3.74 13 0 C14.98 0 16.96 0 19 0 C19.43617985 4.99183607 19.75736156 8.73773073 17.125 13.125 C12.70860467 15.7748372 9.02368399 15.86410753 4 15 C1.375 13.6875 1.375 13.6875 0 11 C-0.3081141 7.30794316 -0.22933005 3.69476184 0 0 Z " fill="#070707" transform="translate(301,414)"/>
<path d="M0 0 C5.94 0 11.88 0 18 0 C18 1.32 18 2.64 18 4 C16.02 4 14.04 4 12 4 C12 7.63 12 11.26 12 15 C10.02 15 8.04 15 6 15 C6 11.37 6 7.74 6 4 C4.02 4 2.04 4 0 4 C0 2.68 0 1.36 0 0 Z " fill="#090909" transform="translate(236,414)"/>
<path d="M0 0 C6.52307692 -0.36923077 6.52307692 -0.36923077 8.9375 1.5 C9.288125 1.995 9.63875 2.49 10 3 C12.6905528 1.77992056 12.6905528 1.77992056 15 0 C16.99958364 -0.04080783 19.00045254 -0.04254356 21 0 C21 0.66 21 1.32 21 2 C20.030625 2.70125 19.06125 3.4025 18.0625 4.125 C16.01227679 5.73141018 15.1232855 6.58206991 14.37890625 9.10546875 C14.15387998 11.06146629 14.06670402 13.03223128 14 15 C12.02 15 10.04 15 8 15 C7.979375 13.989375 7.95875 12.97875 7.9375 11.9375 C7.35254543 7.44980166 4.75163706 5.30428598 1.49609375 2.3828125 C1.00238281 1.92648437 0.50867188 1.47015625 0 1 C0 0.67 0 0.34 0 0 Z " fill="#FF3838" transform="translate(157,414)"/>
<path d="M0 0 C1 1 1 1 1.1875 3.4375 C1 6 1 6 -1 8 C-3.5 8.3125 -3.5 8.3125 -6 8 C-8 5 -8 5 -7.75 2.375 C-7.5025 1.59125 -7.255 0.8075 -7 0 C-4.31633121 -1.3418344 -2.84719317 -0.73004953 0 0 Z " fill="#121212" transform="translate(180,138)"/>
<path d="M0 0 C2.5625 0.1875 2.5625 0.1875 4.5625 2.1875 C4.02678571 5.72321429 4.02678571 5.72321429 2.5625 7.1875 C0.125 7.375 0.125 7.375 -2.4375 7.1875 C-3.0975 6.5275 -3.7575 5.8675 -4.4375 5.1875 C-3.69457547 0.28419811 -3.69457547 0.28419811 0 0 Z " fill="#EFEFEF" transform="translate(265.4375,417.8125)"/>
<path d="M0 0 C2.64 0 5.28 0 8 0 C7.67 0.99 7.34 1.98 7 3 C4.69 3 2.38 3 0 3 C0 2.01 0 1.02 0 0 Z " fill="#F1F1F1" transform="translate(329,418)"/>
<path d="M0 0 C2.64 0 5.28 0 8 0 C7.67 0.99 7.34 1.98 7 3 C4.69 3 2.38 3 0 3 C0 2.01 0 1.02 0 0 Z " fill="#F1F1F1" transform="translate(285,418)"/>
</svg>
